<?xml version="1.0" encoding="utf-8"?>
<!-- Generator: Adobe Illustrator 18.0.0, SVG Export Plug-In . SVG Version: 6.00 Build 0)  -->
<!DOCTYPE svg PUBLIC "-//W3C//DTD SVG 1.1//EN" "http://www.w3.org/Graphics/SVG/1.1/DTD/svg11.dtd">
<svg version="1.1" id="Drew" viewBox="41.3 26.7 92.4 117.7" class="svg-content">
<g id="drew">
<path id="nose" d="M88.8,96.3c1.1-0.5,2.9-1.5,4.1-2.3c1.3-0.8,3.3-2,4.5-2.5c2.6-1.1,3.2-2.1,2.3-3.8c-1.2-2.1-4-1.2-3.2,1.1
	c0.2,0.5,0,0.8-0.5,0.8c-0.5,0-1.7,0.6-2.6,1.5c-1.9,1.7-2.9,1.8-5.5,0.8c-1-0.4-2.4-0.6-3-0.5c-0.8,0.2-1.3,0-1.8-0.8
	c-0.5-1.1-0.6-1.1-1.6-0.2c-1,0.8-1.1,0.8-2.2-0.5l-1.1-1.5l-2.1,1.1c-3.9,1.9-3.1,3.7,1.9,4.3c4.3,0.4,4.8,0.6,6.3,2
	c0.8,0.7,1.5,1.3,1.8,1.3c0.1,0,0.2,0,0.3,0.1c0.3,0,0.6,0,0.9,0C87.4,96.8,87.9,96.6,88.8,96.3z M86.1,94c-0.3-0.3,0-0.4,0.9-0.2
	c1.1,0.3,1.2,0.3,0.5,0.5C87,94.4,86.4,94.3,86.1,94z"/>
<path id="beard" d="M110.7,92.3c-0.3,1-1,2.3-1.4,2.8c-0.8,1-1.8,3.4-2.7,6.6c-0.3,1.1-0.9,2.4-1.2,2.8c-0.4,0.4-0.7,1-0.7,1.3
	s-0.4,0.8-0.8,1.2c-0.6,0.4-0.7,0.5-0.5,0.1c0.2-0.3,0.2-1.5,0-2.4c-0.5-2.4-1.7-2.1-2.5,0.5l-0.6,2l-0.1-2.3c0-2.6-0.8-3.5-1.9-2.2
	c-0.8,1.1-0.9,0.8-0.2-0.9c0.7-1.9,0.2-2.9-1.5-2.7c-1,0.1-1.3-0.1-1.5-1.1c-0.1-1.1-0.8-1.9-1.6-2c-0.2,0-0.6,0.8-0.9,1.8
	c-0.4,1.1-0.8,1.7-1.3,1.5c-0.4-0.2-0.8,0-1,0.3c-0.3,0.3-0.5,0.2-0.8-0.5c-0.3-0.6-1-1.3-1.5-1.5c-0.5-0.2-0.8-0.3-0.7-0.5
	c-0.3,0-0.6,0-0.9,0c0.1,0.1,0.2,0.2,0.2,0.4c0,0.3-0.5,0.5-1.3,0.5c-1.5,0-2.3,1.3-2.3,3.6v1.7l-0.6-1.7c-0.3-1-0.8-1.8-1.1-1.9
	c-0.4-0.1-1.3,0.8-2,2c-0.8,1.3-1.7,2.3-2,2.3c-0.3,0-0.8,0.8-0.9,1.6c-0.5,2.5-2.3,3.1-2.3,0.8c0-1.6-2-1.2-2.5,0.6
	c-0.3,0.8-0.7,1.5-0.9,1.5s-0.8-1.2-1.3-2.7c-1.5-4.3-3.7-7.3-5-7.3c-1,0-1.2-0.3-1.2-1.2c0-1.2-1.3-2.7-1.9-2.1
	c-0.2,0.1-0.4,2-0.5,4.2c-0.3,4.9-0.6,5.4-0.6,0.7c0-2-0.3-4.2-0.5-4.9c-0.5-1.3-0.5-1.3-1.5-0.4c-1.2,1-1.2,1-0.5-3.2
	c0-0.1,0-0.2,0-0.2c-1.8,0.3-3.4,1.2-4.3,2.7c0.3,0.1,0.2,0.5-0.3,1.6c-1.1,2-2,7.1-1.7,9.4c0.5,3.6,0.7,4.1,1.9,3.9
	c1-0.2,1.1,0,1,1.3c-0.2,1.6,0.8,2.6,1.8,1.7c0.3-0.3,0.6-1.1,0.6-1.8c0-1.7,0.5-1.2,0.8,0.8c0.1,0.8,0.7,3.4,1.2,5.8
	c0.6,2.3,1,4.6,1,5c0,0.4,1.2,2.6,2.5,4.9c1.4,2.4,2.9,5.2,3.5,6.3c1.2,2.5,1.8,3,2.8,2.1c0.6-0.5,1-0.3,2.2,1.1
	c0.8,0.9,1.5,1.8,1.5,2c0,0.1,0.6,1,1.3,1.8c1.3,1.6,3.3,2.1,4,1.1c0.6-1,1.3,0,1.3,1.8c0,1.3,0.2,1.7,1,1.7c0.6,0,1.2-0.6,1.5-1.4
	c0.3-0.8,1.3-2,2.3-2.6c1-0.7,2-1.8,2.2-2.5c0.1-0.7,0.5-1.8,0.9-2.4c0.5-1.1,0.6-1.1,2.5,1.1c1.8,2.2,1.8,2.2,4.2,1.9
	c2.3-0.3,3.5-1.1,9.6-7c1-0.9,2.2-1.7,2.7-1.7c1.1,0,2.8-3,2.5-4.3c-0.2-0.6-0.2-0.9,0-0.7c0.2,0.2,0.8,1.7,1.3,3.3
	c0.5,1.6,1,2.5,1,1.9c0.1-0.5,0.3,0,0.5,1.3l0.4,2.3l0-2.1c0.1-1.4,0.7-3.1,1.8-5.1c1.5-2.4,1.7-3.3,1.3-4c-0.8-1.4-0.6-2,0.5-1.7
	c0.8,0.2,1,0,1-0.9c0-1.5,1.5-7.5,2-8.3c0.8-1,0.6-10.3-0.2-12.8c-0.9-2.7-0.7-4.1,0.6-4.3c-2.2-1.6-4.4-2.4-7.1-3.2
	C110.9,91.6,110.8,91.9,110.7,92.3z M99.8,116.1c-1,2.8-2,3.8-3.8,4c-2.7,0.4-6,1.1-6.6,1.4c-0.3,0.2-1.3,0-2.1-0.5
	c-1.1-0.5-2.2-0.7-3.5-0.5c-1.1,0.2-2.4,0.1-3-0.2c-0.6-0.3-1.4-0.4-2.2-0.1c-1.4,0.6-5.3,0.2-5.3-0.5c0-0.3,0.7-0.7,1.5-1
	c1-0.4,1.5-0.8,1.5-1.6c0-0.7,0.6-2.2,1.5-3.4c0.8-1.2,1.5-2.5,1.5-3c0-0.4,0.3-0.9,0.8-1.1c0.4-0.2,0.8-0.8,0.8-1.4
	c0-0.8,0.1-1,0.5-0.5c0.3,0.4,0.3,1,0.3,1.3c-0.3,0.8,1.1,1.9,1.8,1.5c0.3-0.2,0.5-0.6,0.5-0.9c0-0.3,0.5-0.9,1-1.3s1-1,1-1.5
	s0.5-1.3,1.3-1.8c1.2-0.8,1.3-0.8,1.3,0.1c0,1.5,3,1.8,4.1,0.4c0.5-0.6,0.9-1.5,0.9-2c0-0.5,0.1-0.8,0.3-0.8s0.1,1,0,2.2
	c-0.3,2.2,0.7,5.3,1.8,5.3c0.3,0,0.6,0.5,0.8,1.1c0.3,0.8,0.7,1,1.8,0.8c1-0.2,1.5-0.1,1.5,0.4c0,0.4,0.3,0.8,0.7,1
	C100.5,113.8,100.5,114.2,99.8,116.1z"/>
<path id="hair" d="M124.7,35.6c-1.8-0.4-3-2.3-1.5-2.3c1.7,0,1.2-0.9-2-3.9c-3.4-3.2-4.9-3-4.2-2.7c2.4,3.6,2.3,3.9,0.8,3.1
	c-3.5-1.8-5-2.7-7.4-1.5c-2.4,1.1-1.5,0.6-2.4,0.5c-0.9-0.1-2.6,0.2-3.8,0.6c-2.8,1-3.3,1-5.7-0.2c-1.8-0.8-2.1-0.9-3.6-0.3
	c-1,0.4-1.8,0.5-1.9,0.3c-0.4-0.7-15.3-0.6-21.3,0c-2.6,0.3-5.6,0.8-6.8,1.1c-5.7,1.9-13,2.6-15.1,1.4c-1-0.5-1.2-0.5-1.7,0.8
	c-0.5,1-0.9,1.4-1.5,1.2c-1.2-0.3-1.9,2.2-2.3,7.9c-0.3,3.5-0.2,4.4,0.5,4.9c0.6,0.5,0.9,0.5,1.7-0.3c0.9-1,0.9-1,0.9,0.7
	c0,1-0.3,1.8-0.6,1.8c-0.4,0-0.7,0.4-0.7,1c0,1.1-2.3,5.5-3,5.5c-0.3,0-1.2,5-1.9,11.1c-0.1,1-0.1,3.2,0.1,4.7
	c0.4,3,1.2,3.8,2.9,2.8c1-0.7,1-0.6,0.6,2.5c-1.1,9.8-1.1,10.5,0.1,13c1.3,2.6,3.2,4.1,4.6,3.8c0.7-0.2,1,0.1,1.3,1.2
	c0.4,1.6,1.2,1.9,1.6,0.4c0.1-0.5,0.4-1,0.7-1c0.1,0,0.2,0,0.2,0c0.9-1.6,2.5-2.4,4.3-2.7c0.4-3.1-0.2-7.7-1.2-9.2
	c-0.8-1-1.3-3.4-0.8-4.2c0.2-0.4,0.5-3.9,0.7-7.7c0.2-3.8,0.4-7.1,0.6-7.3c0.4-0.7-0.3-3.5-1-3.5c-0.3,0-1,0.4-1.5,0.8
	c-0.9,0.9-0.9,0.8-0.7-2.6c0.1-2,0.6-5,1-6.8c0.4-1.8,0.6-3.7,0.5-4.3c-0.2-0.7,0.5-1.8,2.4-3.8c2.7-2.8,4.5-3.9,5.2-2.9
	c0.4,0.7,3.1,0.7,3.5,0c0.1-0.3,0.8-0.5,1.3-0.5c0.8,0,0.9,0.2,0.5,1.3c-0.6,1.5,0.1,2.6,1.8,2.9c0.4,0,1.1,0.5,1.5,1.1
	c0.7,0.9,0.8,0.9,1,0c0.2-0.5,0.5-0.8,0.8-0.8s0.1,0.7-0.3,1.5c-1,1.8-0.8,4.2,0.3,4.2c0.5,0,0.8-0.6,0.9-1.5c0.1-0.9,0.7-2,1.2-2.5
	c1-1,1-1,0.5,0.1c-1.2,2.3,0,3.7,1.5,1.9c0.5-0.7,0.8-0.7,1.1-0.2c0.3,0.5,0.6,0.5,1.2-0.3c0.9-1.3,5.5-1.6,5.9-0.5
	c0.2,0.4,0.6,0.7,0.9,0.7c0.3,0,1.1,0.5,1.7,1c1.5,1.4,2.6,1,2.8-1.2c0.2-1.4,0.3-1.6,1.3-1.5c1.5,0.2,3.1-1.2,2.8-2.3
	c-0.3-0.7-0.2-0.7,0.3,0c0.8,1.2,1.8,1.2,2.3-0.1c0.2-0.5,1-1.3,1.9-1.8c0.9-0.5,2-1.3,2.5-1.9c0.8-1,0.8-1,1.8-0.2
	c1.1,0.9,3.8,1.1,5.8,0.3c0.9-0.3,1.3-0.8,1.3-1.8c0-1.3,1-1.7,1.8-0.7c0.6,0.7,1.2,3.5,2.4,10c1.2,6.4,1.3,9,0.5,9.9
	c-0.7,0.8-1.2,3.9-2.2,12.2c-0.3,2.9-0.3,4.2,0.1,4.7c0.4,0.5,0.4,1,0,2c-0.3,0.7-0.5,3.8-0.5,7.4c0,4.9-0.2,6.3-0.7,6.5
	c-0.3,0.1-0.6,0.6-0.9,1.2c2.7,0.7,5,1.5,7.1,3.2c0.1,0,0.2,0,0.4,0c0.9,0,1.4-0.4,2-1.9c0.6-1.6,0.7-2.3,0.2-4.4
	c-0.3-1.4-0.8-4.1-1-6c-0.2-1.9-0.7-4.6-1.1-6c-0.4-1.4-0.7-2.8-0.5-3c0.1-0.3,1.1-0.5,2.6-0.3c1.5,0.1,2.5,0,2.8-0.3
	c0.8-1.3,1.3-0.4,1.3,2.1c0,1.9-0.3,3-1,4c-0.5,0.7-1,1.9-1,2.8c0,0.8-0.5,1.8-1,2.3c-1.2,1.1-1.3,2.2-0.3,2.6
	c1.7,0.6,4.6-3.8,6-9.2c0.8-3,0.5-8.9-0.3-9.5c-0.3-0.1-0.5-2-0.5-4s-0.5-5.8-1-8.3c-0.6-2.5-1-5.1-1-5.8c0-0.7-0.5-1.8-1.5-2.7
	c-0.8-0.8-1.5-1.8-1.5-2.3c0-0.5-0.8-2.6-1.7-4.8c-2.5-6.1-2.5-5.9,0.2-4.2c1.7,1.1,2.3,1.8,2.3,2.5c-0.1,0.7,0,0.8,0.1,0.2
	c0.1-0.5,0.4-0.9,0.8-0.9c0.7,0,3.6,1.8,5.9,3.6c1.9,1.5,4.5,1.9,4.5,0.8C127,36.6,125.5,35.8,124.7,35.6z M48.2,35.2
	c0.3,0.1,0.5,0.9,0.5,1.6c0,1.2,0,1.3-0.5,0.4C47.6,35.8,47.6,34.8,48.2,35.2z M51.5,85.7c-0.4,0.9-0.8,2.8-0.8,4.3v2.6l-2-2
	c-1.2-1.1-2.1-2.6-2.3-3.5c-0.4-2.3,0-3.3,0.8-1.6c0.3,0.9,0.9,1.4,1.5,1.4c1.3,0,1.3-0.5-0.5-3.5c-1.4-2.3-1.5-2.7-1-3.9
	c0.3-0.8,1.2-1.8,2-2.1l1.3-0.8l0.9,3.8C52.2,83.8,52.2,84.3,51.5,85.7z"/>
<path d="M104.3,63.3c-0.7,1.3-0.8,4.1-0.2,4.9c1.1,1.5,1.9,0.3,1.7-2.5C105.7,63.5,104.9,62.3,104.3,63.3z"/>
<path d="M98,65.3c0.1,2.6,2.3,5.3,3.2,3.8c0.2-0.2,0.4-1.1,0.6-2c0.3-1.4,0.2-1.6-0.7-1.6c-0.7,0-1.1-0.3-1.1-1c0-0.7-0.3-1-1-1
	C98.2,63.5,98,63.8,98,65.3z"/>
<path d="M65.3,65.8c-1.1,1.6-1.1,4.8-0.1,4.8c0.4,0,0.9-0.4,1.1-0.9c0.2-0.4,0.6-1.4,1-2.2c0.4-0.7,0.7-1.7,0.7-2.1
	C68,64.1,66.2,64.4,65.3,65.8L65.3,65.8z"/>
<path d="M68.6,66.1c-0.8,0.8-0.8,2.8,0.2,3.1c1,0.4,1.1,0.3,1.4-1.3C70.6,66.4,69.5,65.1,68.6,66.1z"/>
<path d="M73.6,67.1c-0.3,0.9-0.6,2-0.6,2.5c0,1.6,1.4,1.1,2.2-0.7l0.7-1.6l0.1,1.8C76,70.7,76.2,71,77,71s1-0.3,1-1.8
	c0-1.3-0.3-1.8-1-2.1c-0.6-0.2-1-0.6-1-0.9C76,64.8,74.1,65.5,73.6,67.1z"/>
<path d="M93.5,67c-0.8,1.4-0.6,3.5,0.3,3.5c0.8,0,1.8-1.8,1.8-3.3C95.5,66.2,94.1,65.9,93.5,67z"/>
<path id="righteye" d="M69.9,73.7c-1.1,0.8-1.2,1.9-0.1,2.8c0.7,0.6,0.9,0.5,1.8-0.5c1.2-1.4,1.2-2.3,0.2-2.8
	C70.8,72.9,71,72.9,69.9,73.7L69.9,73.7z"/>
<path id="lefteye" d="M98.6,73.6c-0.9,0.9-0.8,2.4,0.3,2.4c0.5,0,1.2-0.3,1.5-0.6s0.6-1,0.6-1.5C101,72.8,99.5,72.7,98.6,73.6
	L98.6,73.6z"/>
<path id="nosebaseright" d="M81.5,78.1c-0.8,3.1,0.3,4.1,1.8,1.4c1-1.9,0.9-2.8-0.3-3.2C82.2,76.2,81.9,76.4,81.5,78.1z"/>
<path id="nosebaseleft" d="M88.3,77c-0.4,1.5,0.2,3,1.3,3c1.2,0,1.7-1.1,1.3-2.8C90.4,75.7,88.7,75.6,88.3,77z"/>
<path id="nosebump" d="M84.8,83c-3.3,0.3-5.3,1.2-5.3,2.2s0.6,1.3,1.3,0.7c0.6-0.4,0.9-0.4,1.7,0c0.8,0.4,1.1,0.4,1.3-0.1
	c0.6-0.9,3.7-1.3,4.6-0.5c1,1,2.1,0.8,2.1-0.3c0-0.9-1.8-2.7-2.5-2.5C87.8,82.6,86.4,82.8,84.8,83C84.8,83,84.8,83,84.8,83z"/>
<path d="M99.8,94.8c-0.7,0.7-0.3,1.7,1.7,3.8c1.5,1.7,2.1,2,2.6,1.6c0.8-0.8,0.3-2.6-1.1-4.3C102,94.5,100.6,94.1,99.8,94.8z"/>
<path d="M70.3,97.6c-0.1,0.7-0.4,1.6-0.6,2c-0.6,1.3,1,1.7,2.2,0.5c0.6-0.6,1.4-1.2,1.9-1.5c0.9-0.6,0.9-0.6-0.1-1.3
	C72.3,96.1,70.7,96.3,70.3,97.6z"/>
<path d="M82.8,113.6c-3.7,3.4-2.6,5.9,1.3,2.8l2.1-1.7l1.2,1.4c1.4,1.7,3.7,1.9,6,0.7c2.1-1.1,2.4-2.2,1.2-3.1
	c-0.8-0.6-1.3-0.6-2.4-0.2c-1.3,0.5-1.7,0.4-2.9-0.8C87,110.9,85.4,111.1,82.8,113.6L82.8,113.6L82.8,113.6z"/>
</g>
</svg>
